<svg width="11" height="12" viewBox="0 0 11 12" fill="none" xmlns="http://www.w3.org/2000/svg">
<path d="M5.34896 11.9167L6.6625 10.4271L5.57917 9.88542L7.10938 8.125H8.19271L6.87917 9.61458L7.9625 10.1562L6.43229 11.9167H5.34896ZM2.09896 11.9167L3.4125 10.4271L2.32917 9.88542L3.85938 8.125H4.94271L3.62917 9.61458L4.7125 10.1562L3.18229 11.9167H2.09896ZM2.84375 7.3125C2.05833 7.3125 1.38802 7.03489 0.832812 6.47969C0.277604 5.92448 0 5.25417 0 4.46875C0 3.75556 0.255035 3.1191 0.765104 2.55937C1.27517 1.99965 1.90938 1.69271 2.66771 1.63854C2.9566 1.13299 3.33802 0.733507 3.81198 0.440104C4.28594 0.146701 4.82083 0 5.41667 0C6.23819 0 6.92656 0.259549 7.48177 0.778646C8.03698 1.29774 8.37778 1.94097 8.50417 2.70833C9.21736 2.74444 9.78385 2.98594 10.2036 3.43281C10.6234 3.87969 10.8333 4.40556 10.8333 5.01042C10.8333 5.64236 10.6099 6.18403 10.163 6.63542C9.71615 7.0868 9.17222 7.3125 8.53125 7.3125H2.84375ZM2.84375 6.5H8.53125C8.94653 6.5 9.29861 6.3533 9.5875 6.0599C9.87639 5.76649 10.0208 5.41215 10.0208 4.99687C10.0208 4.59062 9.87639 4.24306 9.5875 3.95417C9.29861 3.66528 8.94653 3.52083 8.53125 3.52083H7.71875V3.11458C7.71875 2.47361 7.49531 1.92969 7.04844 1.48281C6.60156 1.03594 6.05764 0.8125 5.41667 0.8125C4.95625 0.8125 4.5342 0.936632 4.15052 1.1849C3.76684 1.43316 3.48472 1.76944 3.30417 2.19375L3.19583 2.4375H2.81667C2.25694 2.45556 1.78299 2.66094 1.39479 3.05365C1.0066 3.44635 0.8125 3.91806 0.8125 4.46875C0.8125 5.02847 1.01111 5.50694 1.40833 5.90417C1.80556 6.30139 2.28403 6.5 2.84375 6.5Z" fill="black"/>
</svg>
