<svg width="84" height="84" viewBox="0 0 84 84" fill="none" xmlns="http://www.w3.org/2000/svg">
<path d="M14.0417 65.2604H70.0729L53.2292 42.8021L38.1042 62.3958L27.4479 47.8438L14.0417 65.2604ZM7.625 83.25C5.79167 83.25 4.1875 82.5625 2.8125 81.1875C1.4375 79.8125 0.75 78.2083 0.75 76.375V7.625C0.75 5.79167 1.4375 4.1875 2.8125 2.8125C4.1875 1.4375 5.79167 0.75 7.625 0.75H76.375C78.2083 0.75 79.8125 1.4375 81.1875 2.8125C82.5625 4.1875 83.25 5.79167 83.25 7.625V76.375C83.25 78.2083 82.5625 79.8125 81.1875 81.1875C79.8125 82.5625 78.2083 83.25 76.375 83.25H7.625ZM7.625 76.375H76.375V7.625H7.625V76.375ZM7.625 7.625V76.375V7.625Z" fill="black"/>
</svg>
