<svg width="8" height="10" viewBox="0 0 8 10" fill="none" xmlns="http://www.w3.org/2000/svg">
<path d="M4 10C2.94167 10 2.01042 9.63125 1.20625 8.89375C0.402083 8.15625 0 7.15833 0 5.9C0 5.06667 0.33125 4.16042 0.99375 3.18125C1.65625 2.20208 2.65833 1.14167 4 0C5.34167 1.14167 6.34375 2.20208 7.00625 3.18125C7.66875 4.16042 8 5.06667 8 5.9C8 7.15833 7.59792 8.15625 6.79375 8.89375C5.98958 9.63125 5.05833 10 4 10ZM4 9.25C4.91667 9.25 5.6875 8.93333 6.3125 8.3C6.9375 7.66667 7.25 6.86667 7.25 5.9C7.25 5.24167 6.97292 4.49375 6.41875 3.65625C5.86458 2.81875 5.05833 1.93333 4 1C2.94167 1.93333 2.13542 2.81875 1.58125 3.65625C1.02708 4.49375 0.75 5.24167 0.75 5.9C0.75 6.86667 1.0625 7.66667 1.6875 8.3C2.3125 8.93333 3.08333 9.25 4 9.25ZM3.9875 8.4C4.12083 8.4 4.22292 8.37708 4.29375 8.33125C4.36458 8.28542 4.4 8.21667 4.4 8.125C4.4 8.03333 4.36458 7.9625 4.29375 7.9125C4.22292 7.8625 4.11667 7.8375 3.975 7.8375C3.625 7.8375 3.26875 7.72708 2.90625 7.50625C2.54375 7.28542 2.3125 6.89583 2.2125 6.3375C2.19583 6.2625 2.15833 6.20208 2.1 6.15625C2.04167 6.11042 1.97917 6.0875 1.9125 6.0875C1.82083 6.0875 1.75 6.12292 1.7 6.19375C1.65 6.26458 1.63333 6.3375 1.65 6.4125C1.775 7.1125 2.07083 7.61875 2.5375 7.93125C3.00417 8.24375 3.4875 8.4 3.9875 8.4Z" fill="#365B7D"/>
</svg>
